<svg width="22" height="22" viewBox="0 0 22 22" fill="none" xmlns="http://www.w3.org/2000/svg">
<path fill-rule="evenodd" clip-rule="evenodd" d="M14.0475 9.01244L9.00194 14.058L8.99994 14.06L1.52994 21.53C1.37994 21.68 1.18994 21.75 0.999941 21.75C0.809941 21.75 0.619941 21.68 0.469941 21.53C0.179941 21.24 0.179941 20.76 0.469941 20.47L3.84314 17.0968C2.87991 16.231 2.01112 15.1911 1.25984 14C0.199844 12.35 0.199844 9.66001 1.25984 8.00001C3.69984 4.18001 7.24984 1.98001 10.9998 1.98001C13.0891 1.98001 15.1514 2.66545 16.981 3.95923L20.4702 0.470002C20.7602 0.180002 21.2402 0.180002 21.5302 0.470002C21.8202 0.760002 21.8202 1.24 21.5302 1.53L14.0602 9C14.056 9.00421 14.0518 9.00836 14.0475 9.01244ZM13.4847 7.45549C12.7598 6.94454 11.8982 6.67001 10.9999 6.67001C8.60992 6.67001 6.66992 8.61001 6.66992 11C6.66992 11.8982 6.94441 12.7597 7.45528 13.4847L4.90442 16.0355C4.02377 15.2443 3.22341 14.2876 2.51984 13.19C1.76984 12.02 1.76984 9.98001 2.51984 8.81001C4.67984 5.42001 7.76984 3.48001 10.9998 3.48001C12.6946 3.48001 14.3812 4.0139 15.9032 5.03702L13.4847 7.45549ZM8.16992 11C8.16992 9.44001 9.43992 8.17001 10.9999 8.17001C11.4999 8.17001 11.9799 8.30001 12.3999 8.54001L8.53992 12.4C8.29992 11.98 8.16992 11.5 8.16992 11Z" fill="white"/>
<path d="M11.0001 20.02C9.67006 20.02 8.37006 19.75 7.12006 19.22C6.74006 19.06 6.56006 18.62 6.72006 18.24C6.88006 17.86 7.32006 17.68 7.70006 17.84C8.76006 18.29 9.87006 18.52 10.9901 18.52C14.2201 18.52 17.3101 16.58 19.4701 13.19C20.2201 12.02 20.2201 9.98 19.4701 8.81C19.1601 8.32 18.8201 7.85 18.4601 7.41C18.2001 7.09 18.2501 6.62 18.5701 6.35C18.8901 6.09 19.3601 6.13 19.6301 6.46C20.0201 6.94 20.4001 7.46 20.7401 8C21.8001 9.65 21.8001 12.34 20.7401 14C18.3001 17.82 14.7501 20.02 11.0001 20.02Z" fill="white"/>
<path d="M10.9501 14.66C11.0201 15.02 11.3401 15.27 11.6901 15.27C11.7071 15.27 11.723 15.2688 11.7385 15.2677C11.7685 15.2655 11.7971 15.2634 11.8301 15.27C13.5501 14.95 14.9301 13.58 15.2501 11.85C15.3301 11.44 15.0601 11.05 14.6501 10.97C14.2401 10.9 13.8501 11.16 13.7701 11.57C13.5701 12.67 12.6501 13.59 11.5501 13.79C11.1401 13.86 10.8701 14.25 10.9501 14.66Z" fill="white"/>
</svg>
